<svg width="31" height="30" viewBox="0 0 31 30" fill="none" xmlns="http://www.w3.org/2000/svg">
<path d="M20.6667 22.5C21.3518 22.5 22.0089 22.7634 22.4933 23.2322C22.9778 23.7011 23.25 24.337 23.25 25C23.25 25.663 22.9778 26.2989 22.4933 26.7678C22.0089 27.2366 21.3518 27.5 20.6667 27.5C19.9815 27.5 19.3244 27.2366 18.84 26.7678C18.3555 26.2989 18.0833 25.663 18.0833 25C18.0833 24.337 18.3555 23.7011 18.84 23.2322C19.3244 22.7634 19.9815 22.5 20.6667 22.5ZM20.6667 23.75C20.3241 23.75 19.9955 23.8817 19.7533 24.1161C19.5111 24.3505 19.375 24.6685 19.375 25C19.375 25.3315 19.5111 25.6495 19.7533 25.8839C19.9955 26.1183 20.3241 26.25 20.6667 26.25C21.0092 26.25 21.3378 26.1183 21.58 25.8839C21.8222 25.6495 21.9583 25.3315 21.9583 25C21.9583 24.6685 21.8222 24.3505 21.58 24.1161C21.3378 23.8817 21.0092 23.75 20.6667 23.75ZM9.04166 22.5C9.7268 22.5 10.3839 22.7634 10.8683 23.2322C11.3528 23.7011 11.625 24.337 11.625 25C11.625 25.663 11.3528 26.2989 10.8683 26.7678C10.3839 27.2366 9.7268 27.5 9.04166 27.5C8.35651 27.5 7.69943 27.2366 7.21496 26.7678C6.73049 26.2989 6.45832 25.663 6.45832 25C6.45832 24.337 6.73049 23.7011 7.21496 23.2322C7.69943 22.7634 8.35651 22.5 9.04166 22.5ZM9.04166 23.75C8.69908 23.75 8.37054 23.8817 8.12831 24.1161C7.88608 24.3505 7.74999 24.6685 7.74999 25C7.74999 25.3315 7.88608 25.6495 8.12831 25.8839C8.37054 26.1183 8.69908 26.25 9.04166 26.25C9.38423 26.25 9.71277 26.1183 9.955 25.8839C10.1972 25.6495 10.3333 25.3315 10.3333 25C10.3333 24.6685 10.1972 24.3505 9.955 24.1161C9.71277 23.8817 9.38423 23.75 9.04166 23.75ZM23.25 7.5H5.51541L8.80916 15H19.375C19.8012 15 20.1758 14.8 20.4083 14.5L24.2833 9.5C24.4512 9.2875 24.5417 9.025 24.5417 8.75C24.5417 8.41848 24.4056 8.10054 24.1633 7.86612C23.9211 7.6317 23.5926 7.5 23.25 7.5ZM19.375 16.25H8.87374L7.87916 18.2L7.74999 18.75C7.74999 19.0815 7.88608 19.3995 8.12831 19.6339C8.37054 19.8683 8.69908 20 9.04166 20H23.25V21.25H9.04166C8.35651 21.25 7.69943 20.9866 7.21496 20.5178C6.73049 20.0489 6.45832 19.413 6.45832 18.75C6.45794 18.3259 6.56906 17.9086 6.78124 17.5375L7.71124 15.7L3.02249 5H1.29166V3.75H3.87499L4.97291 6.25H23.25C23.9351 6.25 24.5922 6.51339 25.0767 6.98223C25.5611 7.45107 25.8333 8.08696 25.8333 8.75C25.8333 9.375 25.6137 9.9 25.2521 10.325L21.4933 15.1875C21.0283 15.825 20.2533 16.25 19.375 16.25Z" fill="black"/>
</svg>
