<svg width="43" height="40" viewBox="0 0 43 40" fill="none" xmlns="http://www.w3.org/2000/svg">
<path d="M37.881 11.4285H15.3571M11.2619 11.4285H5.11905M37.881 30.4762H15.3571M11.2619 30.4762H5.11905M27.6429 20.9524H5.11905M37.881 20.9524H31.7381M13.3095 7.61902C13.8526 7.61902 14.3734 7.8197 14.7574 8.17691C15.1414 8.53412 15.3571 9.01861 15.3571 9.52378V13.3333C15.3571 13.8385 15.1414 14.323 14.7574 14.6802C14.3734 15.0374 13.8526 15.2381 13.3095 15.2381C12.7665 15.2381 12.2456 15.0374 11.8616 14.6802C11.4776 14.323 11.2619 13.8385 11.2619 13.3333V9.52378C11.2619 9.01861 11.4776 8.53412 11.8616 8.17691C12.2456 7.8197 12.7665 7.61902 13.3095 7.61902V7.61902ZM13.3095 26.6666C13.8526 26.6666 14.3734 26.8673 14.7574 27.2245C15.1414 27.5817 15.3571 28.0662 15.3571 28.5714V32.3809C15.3571 32.8861 15.1414 33.3706 14.7574 33.7278C14.3734 34.085 13.8526 34.2857 13.3095 34.2857C12.7665 34.2857 12.2456 34.085 11.8616 33.7278C11.4776 33.3706 11.2619 32.8861 11.2619 32.3809V28.5714C11.2619 28.0662 11.4776 27.5817 11.8616 27.2245C12.2456 26.8673 12.7665 26.6666 13.3095 26.6666ZM29.6905 17.1428C30.2335 17.1428 30.7544 17.3435 31.1384 17.7007C31.5224 18.0579 31.7381 18.5424 31.7381 19.0476V22.8571C31.7381 23.3623 31.5224 23.8468 31.1384 24.204C30.7544 24.5612 30.2335 24.7619 29.6905 24.7619C29.1474 24.7619 28.6266 24.5612 28.2426 24.204C27.8586 23.8468 27.6429 23.3623 27.6429 22.8571V19.0476C27.6429 18.5424 27.8586 18.0579 28.2426 17.7007C28.6266 17.3435 29.1474 17.1428 29.6905 17.1428V17.1428Z" stroke="black" stroke-linecap="round" stroke-linejoin="round"/>
</svg>
